# xmcd
#
# Track frame offsets:
#	150
#	12018
#	24734
#	38138
#	53060
#	63676
#	76141
#	90158
#	104735
#	117341
#	130429
#	146231
#	164198
#	178058
#	189916
#	206713
#	224701
#	242299
#	253199
#	276454
#	290657
#	304214
#
# Disc length: 4238 seconds
#
# Revision: 0
# Processed by: cddbd v1.4PL0 Copyright (c) Steve Scherf et al.
# Submitted via: dBpowerAMP V4.0
#
DISCID=57108c16
DTITLE=Dolly Parton - Gold (Greatest Hits)
DYEAR=1900
DGENRE=Country
TTITLE0=Jolene
TTITLE1=9 to 5
TTITLE2=Here you come again
TTITLE3=Everything's Beautiful
TTITLE4=Love is like a butterfly
TTITLE5=D.I.V.O.R.C.E
TTITLE6=Coat of many colours
TTITLE7=Harper Valley PTA
TTITLE8=In the Ghetto
TTITLE9=I will always love you
TTITLE10=Heartbreaker
TTITLE11=Starting over again
TTITLE12=Two doors down
TTITLE13=Baby I'm Burnin'
TTITLE14=The Great Pretender
TTITLE15=One of those days
TTITLE16=Save the last dance for me
TTITLE17=Silver threads and Golden needles
TTITLE18=Down from Dover
TTITLE19=My Tennessee Mountain home
TTITLE20=Joshua
TTITLE21=Sendd Me The Pillow
EXTD=
EXTT0=
EXTT1=
EXTT2=
EXTT3=
EXTT4=
EXTT5=
EXTT6=
EXTT7=
EXTT8=
EXTT9=
EXTT10=
EXTT11=
EXTT12=
EXTT13=
EXTT14=
EXTT15=
EXTT16=
EXTT17=
EXTT18=
EXTT19=
EXTT20=
EXTT21=
PLAYORDER=
